# xmcd
#
# Track frame offsets:
#	150
#	12865
#	26460
#	39478
#	52668
#	66173
#	77185
#	88830
#	99718
#	112143
#	125658
#	137048
#	150970
#	164858
#	178345
#	195308
#	204558
#	218985
#
# Disc length: 3101
#
# Revision: 1
# Processed by: cddbd v1.5.1PL0 Copyright (c) Steve Scherf et al.
# Submitted via: Nero 5.5.5.1
# Normalized: r0:DSETVAR1
#
DISCID=fd0c1b12
DTITLE=Various Artist - Sun Blue Collection: Blue Flames
DYEAR=1900
DGENRE=
TTITLE0=Jackie Brenston and His Delta Cats - Rocket 88
TTITLE1=Howlin' Wolf - My Baby Walked Off
TTITLE2=Rufus Thomas - Bear Cat (The Answer To Hound Dog)
TTITLE3=Little Milton - Lookin' For My Baby
TTITLE4=James Cotton - Cotton Crop Blues
TTITLE5=Billy "The Kid" Emerson - Red Hot
TTITLE6=Coy "Hot Shot" Love - Harmonica Jam
TTITLE7=Junior Parker - Mystery Train
TTITLE8=Doctor Ross - Terra Mae
TTITLE9=Walter Horton and Jimmy DeBerry - Easy
TTITLE10=B.B. King - B.B. Blues
TTITLE11=Rosco Gordon - I Found A New Love
TTITLE12=Sleepy John Estes - Runnin' Around
TTITLE13=Souther Jubilee Singers, The - Forgive Me Lord
TTITLE14=Joe Hill Louis - When I Am Gone (Treat Me Mean and Evil)
TTITLE15=Frank Frost - Jack's Jump
TTITLE16=Pat Hare - I'm Gonna Murder My Baby
TTITLE17=Johnny London - Drivin' Slow
EXTD=
EXTT0=
EXTT1=
EXTT2=
EXTT3=
EXTT4=
EXTT5=
EXTT6=
EXTT7=
EXTT8=
EXTT9=
EXTT10=
EXTT11=
EXTT12=
EXTT13=
EXTT14=
EXTT15=
EXTT16=
EXTT17=
PLAYORDER=
